<mxfile host="app.diagrams.net" modified="2024-03-31T18:16:47.279Z" agent="Mozilla/5.0 (X11; Ubuntu; Linux x86_64; rv:124.0) Gecko/20100101 Firefox/124.0" etag="57rJamEebZxavQxZVviL" version="24.2.1" type="device">
  <diagram name="Page-1" id="FA6xspj9zXiVi3_ujpH7">
    <mxGraphModel dx="1183" dy="892" grid="1" gridSize="10" guides="1" tooltips="1" connect="1" arrows="1" fold="1" page="1" pageScale="1" pageWidth="850" pageHeight="1100" math="0" shadow="0">
      <root>
        <mxCell id="0" />
        <mxCell id="1" parent="0" />
        <mxCell id="K5TNUt4RhTZgML1znWcO-27" value="Server" style="rounded=0;whiteSpace=wrap;html=1;align=right;verticalAlign=bottom;fontSize=22;" vertex="1" parent="1">
          <mxGeometry x="561" y="240" width="210" height="200" as="geometry" />
        </mxCell>
        <mxCell id="K5TNUt4RhTZgML1znWcO-24" value="Clent" style="rounded=0;whiteSpace=wrap;html=1;align=left;verticalAlign=top;fontSize=22;" vertex="1" parent="1">
          <mxGeometry x="50" y="240" width="420" height="560" as="geometry" />
        </mxCell>
        <mxCell id="K5TNUt4RhTZgML1znWcO-32" value="sync " style="rounded=0;whiteSpace=wrap;html=1;dashed=1;align=left;verticalAlign=top;" vertex="1" parent="1">
          <mxGeometry x="60" y="420" width="200" height="360" as="geometry" />
        </mxCell>
        <mxCell id="K5TNUt4RhTZgML1znWcO-6" style="edgeStyle=orthogonalEdgeStyle;rounded=0;orthogonalLoop=1;jettySize=auto;html=1;exitX=1;exitY=0.5;exitDx=0;exitDy=0;entryX=0.5;entryY=1;entryDx=0;entryDy=0;" edge="1" parent="1" source="K5TNUt4RhTZgML1znWcO-2" target="K5TNUt4RhTZgML1znWcO-3">
          <mxGeometry relative="1" as="geometry" />
        </mxCell>
        <mxCell id="K5TNUt4RhTZgML1znWcO-29" value="&lt;div&gt;From&amp;nbsp;&lt;/div&gt;&lt;div&gt;Sync&lt;/div&gt;&lt;div&gt;to&lt;/div&gt;&lt;div&gt;Async&lt;/div&gt;&lt;div&gt;&lt;b&gt;send&lt;/b&gt;&lt;br&gt;&lt;/div&gt;" style="edgeLabel;html=1;align=center;verticalAlign=middle;resizable=0;points=[];" vertex="1" connectable="0" parent="K5TNUt4RhTZgML1znWcO-6">
          <mxGeometry x="-0.2432" y="-3" relative="1" as="geometry">
            <mxPoint as="offset" />
          </mxGeometry>
        </mxCell>
        <mxCell id="K5TNUt4RhTZgML1znWcO-2" value="Painter" style="rounded=0;whiteSpace=wrap;html=1;align=left;verticalAlign=top;" vertex="1" parent="1">
          <mxGeometry x="120" y="540" width="120" height="190" as="geometry" />
        </mxCell>
        <mxCell id="K5TNUt4RhTZgML1znWcO-7" style="edgeStyle=orthogonalEdgeStyle;rounded=0;orthogonalLoop=1;jettySize=auto;html=1;exitX=0.5;exitY=0;exitDx=0;exitDy=0;entryX=0.5;entryY=1;entryDx=0;entryDy=0;" edge="1" parent="1" source="K5TNUt4RhTZgML1znWcO-3" target="K5TNUt4RhTZgML1znWcO-4">
          <mxGeometry relative="1" as="geometry" />
        </mxCell>
        <mxCell id="K5TNUt4RhTZgML1znWcO-33" value="&lt;div&gt;Bounded&lt;/div&gt;&lt;div&gt;queue&lt;/div&gt;&lt;div&gt;(5)&lt;/div&gt;" style="edgeLabel;html=1;align=center;verticalAlign=middle;resizable=0;points=[];" vertex="1" connectable="0" parent="K5TNUt4RhTZgML1znWcO-7">
          <mxGeometry x="0.0857" y="2" relative="1" as="geometry">
            <mxPoint as="offset" />
          </mxGeometry>
        </mxCell>
        <mxCell id="K5TNUt4RhTZgML1znWcO-3" value="&lt;div&gt;tokio&lt;/div&gt;&lt;div&gt;mpsc&lt;/div&gt;&lt;div&gt;sender&lt;br&gt;&lt;/div&gt;" style="shape=process;whiteSpace=wrap;html=1;backgroundOutline=1;" vertex="1" parent="1">
          <mxGeometry x="300" y="510" width="120" height="60" as="geometry" />
        </mxCell>
        <mxCell id="K5TNUt4RhTZgML1znWcO-4" value="&lt;div&gt;tokio&lt;/div&gt;&lt;div&gt;mpsc&lt;/div&gt;&lt;div&gt;receiver&lt;br&gt;&lt;/div&gt;" style="shape=process;whiteSpace=wrap;html=1;backgroundOutline=1;" vertex="1" parent="1">
          <mxGeometry x="300" y="330" width="120" height="60" as="geometry" />
        </mxCell>
        <mxCell id="K5TNUt4RhTZgML1znWcO-21" style="edgeStyle=orthogonalEdgeStyle;rounded=0;orthogonalLoop=1;jettySize=auto;html=1;exitX=0.5;exitY=1;exitDx=0;exitDy=0;entryX=0.5;entryY=0;entryDx=0;entryDy=0;" edge="1" parent="1" source="K5TNUt4RhTZgML1znWcO-5" target="K5TNUt4RhTZgML1znWcO-17">
          <mxGeometry relative="1" as="geometry" />
        </mxCell>
        <mxCell id="K5TNUt4RhTZgML1znWcO-36" value="Update" style="edgeLabel;html=1;align=center;verticalAlign=middle;resizable=0;points=[];" vertex="1" connectable="0" parent="K5TNUt4RhTZgML1znWcO-21">
          <mxGeometry x="-0.2" y="-1" relative="1" as="geometry">
            <mxPoint as="offset" />
          </mxGeometry>
        </mxCell>
        <mxCell id="K5TNUt4RhTZgML1znWcO-5" value="&lt;div&gt;WebSocket &lt;br&gt;&lt;/div&gt;&lt;div&gt;receiver&lt;br&gt;&lt;/div&gt;" style="shape=process;whiteSpace=wrap;html=1;backgroundOutline=1;" vertex="1" parent="1">
          <mxGeometry x="137.5" y="320" width="120" height="60" as="geometry" />
        </mxCell>
        <mxCell id="K5TNUt4RhTZgML1znWcO-15" style="edgeStyle=orthogonalEdgeStyle;rounded=0;orthogonalLoop=1;jettySize=auto;html=1;exitX=0;exitY=0.5;exitDx=0;exitDy=0;entryX=0.5;entryY=0;entryDx=0;entryDy=0;" edge="1" parent="1" source="K5TNUt4RhTZgML1znWcO-9" target="K5TNUt4RhTZgML1znWcO-5">
          <mxGeometry relative="1" as="geometry" />
        </mxCell>
        <mxCell id="K5TNUt4RhTZgML1znWcO-35" value="&lt;div&gt;WebSocket&lt;/div&gt;&lt;div&gt;In&lt;br&gt;&lt;/div&gt;" style="edgeLabel;html=1;align=center;verticalAlign=middle;resizable=0;points=[];" vertex="1" connectable="0" parent="K5TNUt4RhTZgML1znWcO-15">
          <mxGeometry x="-0.4866" y="1" relative="1" as="geometry">
            <mxPoint as="offset" />
          </mxGeometry>
        </mxCell>
        <mxCell id="K5TNUt4RhTZgML1znWcO-9" value="&lt;div&gt;WebSocket&lt;/div&gt;&lt;div&gt;Out&lt;br&gt;&lt;/div&gt;" style="shape=process;whiteSpace=wrap;html=1;backgroundOutline=1;" vertex="1" parent="1">
          <mxGeometry x="621" y="250" width="120" height="60" as="geometry" />
        </mxCell>
        <mxCell id="K5TNUt4RhTZgML1znWcO-26" style="edgeStyle=orthogonalEdgeStyle;rounded=0;orthogonalLoop=1;jettySize=auto;html=1;exitX=1;exitY=0.5;exitDx=0;exitDy=0;entryX=1;entryY=0.5;entryDx=0;entryDy=0;" edge="1" parent="1" source="K5TNUt4RhTZgML1znWcO-10" target="K5TNUt4RhTZgML1znWcO-9">
          <mxGeometry relative="1" as="geometry" />
        </mxCell>
        <mxCell id="K5TNUt4RhTZgML1znWcO-10" value="&lt;div&gt;WebSocket&lt;/div&gt;&lt;div&gt;In&lt;br&gt;&lt;/div&gt;" style="shape=process;whiteSpace=wrap;html=1;backgroundOutline=1;" vertex="1" parent="1">
          <mxGeometry x="621" y="330" width="120" height="60" as="geometry" />
        </mxCell>
        <mxCell id="K5TNUt4RhTZgML1znWcO-17" value="&lt;div&gt;Draw points&lt;/div&gt;&lt;div&gt;list&lt;br&gt;&lt;/div&gt;&lt;div&gt;&lt;br&gt;&lt;/div&gt;&lt;div&gt;(shared)&lt;br&gt;&lt;/div&gt;" style="rounded=1;whiteSpace=wrap;html=1;" vertex="1" parent="1">
          <mxGeometry x="170" y="560" width="55" height="80" as="geometry" />
        </mxCell>
        <mxCell id="K5TNUt4RhTZgML1znWcO-19" value="" style="curved=1;endArrow=classic;html=1;rounded=0;exitX=0.5;exitY=1;exitDx=0;exitDy=0;entryX=0.5;entryY=0;entryDx=0;entryDy=0;" edge="1" parent="1" source="K5TNUt4RhTZgML1znWcO-2" target="K5TNUt4RhTZgML1znWcO-2">
          <mxGeometry width="50" height="50" relative="1" as="geometry">
            <mxPoint x="140" y="800" as="sourcePoint" />
            <mxPoint x="160" y="520" as="targetPoint" />
            <Array as="points">
              <mxPoint x="90" y="780" />
              <mxPoint x="80" y="740" />
              <mxPoint x="80" y="630" />
              <mxPoint x="80" y="490" />
              <mxPoint x="110" y="430" />
            </Array>
          </mxGeometry>
        </mxCell>
        <mxCell id="K5TNUt4RhTZgML1znWcO-28" value="&lt;div&gt;UI&lt;/div&gt;&lt;div&gt;paint&lt;/div&gt;&lt;div&gt;thread&lt;br&gt;&lt;/div&gt;" style="edgeLabel;html=1;align=center;verticalAlign=middle;resizable=0;points=[];" vertex="1" connectable="0" parent="K5TNUt4RhTZgML1znWcO-19">
          <mxGeometry x="-0.0461" relative="1" as="geometry">
            <mxPoint as="offset" />
          </mxGeometry>
        </mxCell>
        <mxCell id="K5TNUt4RhTZgML1znWcO-14" style="edgeStyle=orthogonalEdgeStyle;rounded=0;orthogonalLoop=1;jettySize=auto;html=1;exitX=1;exitY=0.5;exitDx=0;exitDy=0;" edge="1" parent="1" source="K5TNUt4RhTZgML1znWcO-4" target="K5TNUt4RhTZgML1znWcO-10">
          <mxGeometry relative="1" as="geometry" />
        </mxCell>
        <mxCell id="K5TNUt4RhTZgML1znWcO-34" value="&lt;div&gt;WebSocket&lt;/div&gt;&lt;div&gt;Out&lt;br&gt;&lt;/div&gt;" style="edgeLabel;html=1;align=center;verticalAlign=middle;resizable=0;points=[];" vertex="1" connectable="0" parent="K5TNUt4RhTZgML1znWcO-14">
          <mxGeometry x="-0.2" y="-3" relative="1" as="geometry">
            <mxPoint as="offset" />
          </mxGeometry>
        </mxCell>
        <mxCell id="K5TNUt4RhTZgML1znWcO-40" style="edgeStyle=orthogonalEdgeStyle;rounded=0;orthogonalLoop=1;jettySize=auto;html=1;exitX=0.5;exitY=1;exitDx=0;exitDy=0;" edge="1" parent="1" source="K5TNUt4RhTZgML1znWcO-27" target="K5TNUt4RhTZgML1znWcO-27">
          <mxGeometry relative="1" as="geometry" />
        </mxCell>
        <mxCell id="K5TNUt4RhTZgML1znWcO-51" style="edgeStyle=orthogonalEdgeStyle;rounded=0;orthogonalLoop=1;jettySize=auto;html=1;exitX=1;exitY=0.5;exitDx=0;exitDy=0;entryX=0;entryY=0.5;entryDx=0;entryDy=0;dashed=1;" edge="1" parent="1" source="K5TNUt4RhTZgML1znWcO-46" target="K5TNUt4RhTZgML1znWcO-47">
          <mxGeometry relative="1" as="geometry" />
        </mxCell>
        <mxCell id="K5TNUt4RhTZgML1znWcO-46" value="" style="ellipse;whiteSpace=wrap;html=1;aspect=fixed;" vertex="1" parent="1">
          <mxGeometry x="270" y="190" width="20" height="20" as="geometry" />
        </mxCell>
        <mxCell id="K5TNUt4RhTZgML1znWcO-52" style="edgeStyle=orthogonalEdgeStyle;rounded=0;orthogonalLoop=1;jettySize=auto;html=1;exitX=0.5;exitY=0;exitDx=0;exitDy=0;entryX=0.5;entryY=1;entryDx=0;entryDy=0;dashed=1;" edge="1" parent="1" source="K5TNUt4RhTZgML1znWcO-47" target="K5TNUt4RhTZgML1znWcO-48">
          <mxGeometry relative="1" as="geometry" />
        </mxCell>
        <mxCell id="K5TNUt4RhTZgML1znWcO-47" value="" style="ellipse;whiteSpace=wrap;html=1;aspect=fixed;" vertex="1" parent="1">
          <mxGeometry x="671" y="190" width="20" height="20" as="geometry" />
        </mxCell>
        <mxCell id="K5TNUt4RhTZgML1znWcO-53" style="edgeStyle=orthogonalEdgeStyle;rounded=0;orthogonalLoop=1;jettySize=auto;html=1;exitX=0;exitY=0.5;exitDx=0;exitDy=0;entryX=1;entryY=0.5;entryDx=0;entryDy=0;dashed=1;" edge="1" parent="1" source="K5TNUt4RhTZgML1znWcO-48" target="K5TNUt4RhTZgML1znWcO-49">
          <mxGeometry relative="1" as="geometry" />
        </mxCell>
        <mxCell id="K5TNUt4RhTZgML1znWcO-48" value="" style="ellipse;whiteSpace=wrap;html=1;aspect=fixed;" vertex="1" parent="1">
          <mxGeometry x="671" y="110" width="20" height="20" as="geometry" />
        </mxCell>
        <mxCell id="K5TNUt4RhTZgML1znWcO-49" value="" style="ellipse;whiteSpace=wrap;html=1;aspect=fixed;" vertex="1" parent="1">
          <mxGeometry x="270" y="110" width="20" height="20" as="geometry" />
        </mxCell>
        <mxCell id="K5TNUt4RhTZgML1znWcO-50" value="" style="endArrow=classic;startArrow=classic;html=1;rounded=0;exitX=0.5;exitY=0;exitDx=0;exitDy=0;entryX=0.5;entryY=1;entryDx=0;entryDy=0;" edge="1" parent="1" source="K5TNUt4RhTZgML1znWcO-46" target="K5TNUt4RhTZgML1znWcO-49">
          <mxGeometry width="50" height="50" relative="1" as="geometry">
            <mxPoint x="230" y="180" as="sourcePoint" />
            <mxPoint x="280" y="140" as="targetPoint" />
          </mxGeometry>
        </mxCell>
        <mxCell id="K5TNUt4RhTZgML1znWcO-54" value="Latency" style="edgeLabel;html=1;align=center;verticalAlign=middle;resizable=0;points=[];" vertex="1" connectable="0" parent="K5TNUt4RhTZgML1znWcO-50">
          <mxGeometry x="0.0333" y="2" relative="1" as="geometry">
            <mxPoint as="offset" />
          </mxGeometry>
        </mxCell>
      </root>
    </mxGraphModel>
  </diagram>
</mxfile>
